<svg id="svg" version="1.1" xmlns="http://www.w3.org/2000/svg" xmlns:xlink="http://www.w3.org/1999/xlink" width="400" height="97.196261682243" viewBox="0, 0, 400,97.196261682243"><g id="svgg"><path id="path0" d="M264.750 0.115 C 262.452 0.413,259.000 1.260,259.000 1.526 C 259.000 1.603,258.895 1.667,258.767 1.667 C 258.416 1.667,255.667 2.847,255.667 2.997 C 255.667 3.069,255.535 3.170,255.375 3.221 C 254.804 3.405,253.254 4.371,252.766 4.848 C 252.493 5.115,252.176 5.333,252.060 5.333 C 251.945 5.333,251.650 5.596,251.405 5.917 C 251.161 6.237,250.874 6.500,250.768 6.500 C 250.542 6.500,248.949 8.130,248.245 9.083 C 247.974 9.450,247.664 9.806,247.557 9.875 C 247.449 9.944,247.120 10.394,246.826 10.875 C 246.531 11.356,246.233 11.787,246.163 11.833 C 246.093 11.879,245.720 12.536,245.333 13.293 C 244.947 14.050,244.580 14.701,244.518 14.739 C 244.457 14.777,244.108 15.695,243.745 16.779 C 243.381 17.863,243.035 18.787,242.975 18.833 C 242.519 19.185,241.833 24.803,241.833 28.191 C 241.833 31.466,242.540 36.996,243.002 37.333 C 243.065 37.379,243.326 38.092,243.582 38.917 C 244.031 40.363,244.599 41.640,244.889 41.852 C 244.966 41.908,245.018 42.004,245.004 42.065 C 244.963 42.255,245.836 44.000,245.972 44.000 C 246.042 44.000,246.255 44.319,246.445 44.708 C 247.304 46.473,251.866 51.372,252.364 51.064 C 252.478 50.994,252.505 51.024,252.433 51.141 C 252.367 51.247,252.389 51.333,252.482 51.333 C 252.574 51.333,252.850 51.519,253.096 51.747 C 253.341 51.974,253.602 52.123,253.676 52.077 C 253.750 52.032,253.915 52.143,254.042 52.325 C 254.237 52.604,256.451 53.833,256.757 53.833 C 256.812 53.833,256.967 53.943,257.101 54.077 C 257.346 54.322,260.286 55.333,260.752 55.333 C 260.888 55.333,261.000 55.396,261.000 55.473 C 261.000 56.066,269.625 56.584,272.772 56.180 C 274.556 55.951,276.053 55.646,276.167 55.488 C 276.212 55.424,276.737 55.250,277.333 55.100 C 278.534 54.799,280.201 54.175,280.339 53.975 C 280.388 53.905,280.875 53.649,281.422 53.407 C 282.246 53.043,283.843 52.031,284.167 51.668 C 284.212 51.616,284.414 51.501,284.615 51.412 C 284.815 51.323,285.321 50.927,285.740 50.532 C 286.158 50.138,286.500 49.868,286.500 49.933 C 286.500 49.998,286.648 49.918,286.829 49.754 C 287.011 49.590,287.125 49.400,287.083 49.333 C 287.042 49.266,287.156 49.077,287.337 48.913 C 287.518 48.749,287.667 48.678,287.667 48.755 C 287.667 48.833,287.892 48.680,288.167 48.417 C 288.442 48.153,288.667 47.840,288.667 47.720 C 288.667 47.601,288.824 47.408,289.016 47.293 C 289.381 47.074,290.593 45.342,290.534 45.125 C 290.515 45.056,290.594 44.999,290.708 44.998 C 290.928 44.995,291.833 43.484,291.833 43.120 C 291.833 43.003,291.983 42.799,292.166 42.667 C 292.349 42.535,292.695 41.900,292.935 41.255 C 293.176 40.611,293.554 39.689,293.775 39.207 C 294.228 38.220,294.723 36.364,295.030 34.500 C 295.143 33.813,295.296 33.208,295.369 33.156 C 295.702 32.922,295.849 23.868,295.517 24.073 C 295.454 24.112,295.433 23.886,295.470 23.572 C 295.506 23.258,295.477 22.870,295.405 22.709 C 295.281 22.431,294.947 20.891,294.751 19.690 C 294.700 19.382,294.573 18.970,294.468 18.774 C 294.363 18.577,294.302 18.417,294.332 18.417 C 294.362 18.417,294.333 18.133,294.268 17.787 C 294.203 17.441,294.086 17.197,294.007 17.246 C 293.929 17.294,293.904 17.184,293.952 17.000 C 294.000 16.817,293.970 16.667,293.886 16.667 C 293.802 16.667,293.638 16.385,293.522 16.042 C 293.203 15.098,292.466 13.428,292.328 13.333 C 292.260 13.287,291.956 12.773,291.651 12.190 C 291.346 11.606,290.999 11.092,290.881 11.047 C 290.763 11.001,290.667 10.887,290.667 10.792 C 290.667 9.827,285.203 4.674,283.012 3.574 C 282.547 3.340,282.167 3.069,282.167 2.972 C 282.167 2.874,282.017 2.834,281.833 2.882 C 281.650 2.930,281.536 2.910,281.581 2.837 C 281.649 2.728,280.216 2.000,279.932 2.000 C 279.883 2.000,279.427 1.809,278.918 1.577 C 276.234 0.349,268.832 -0.415,264.750 0.115 M0.066 1.848 C 0.237 4.132,0.251 4.167,1.005 4.167 C 1.725 4.167,3.333 4.505,3.333 4.657 C 3.333 4.712,3.671 4.941,4.083 5.166 C 5.870 6.143,5.828 5.595,5.828 28.225 C 5.827 48.690,5.816 49.001,5.068 50.122 C 4.898 50.376,4.782 50.658,4.810 50.750 C 4.838 50.842,4.807 50.863,4.741 50.796 C 4.675 50.730,4.408 50.855,4.148 51.074 C 3.669 51.477,1.801 52.000,0.842 52.000 C 0.474 52.000,0.330 52.080,0.321 52.292 C 0.314 52.452,0.279 52.733,0.244 52.917 C 0.209 53.100,0.131 53.850,0.071 54.583 L -0.039 55.917 10.814 55.917 L 21.667 55.917 21.667 54.885 C 21.667 54.317,21.602 53.813,21.522 53.764 C 21.442 53.714,21.329 53.308,21.269 52.860 L 21.161 52.045 20.101 51.937 C 18.570 51.780,16.684 51.248,16.336 50.875 C 16.171 50.697,15.852 50.408,15.628 50.232 C 14.989 49.729,14.371 48.106,14.175 46.417 C 13.881 43.878,13.938 4.833,14.236 4.833 C 14.366 4.833,14.503 4.740,14.542 4.625 C 14.632 4.354,21.448 4.322,21.631 4.592 C 21.696 4.688,22.127 4.852,22.588 4.955 C 23.694 5.204,25.279 5.802,25.550 6.074 C 25.669 6.193,25.988 6.405,26.259 6.545 C 26.529 6.685,26.892 6.955,27.064 7.146 C 27.237 7.336,27.445 7.451,27.526 7.400 C 27.608 7.350,27.654 7.372,27.629 7.449 C 27.604 7.527,27.865 7.934,28.208 8.354 C 28.552 8.774,28.833 9.200,28.833 9.301 C 28.833 9.401,28.942 9.544,29.075 9.619 C 29.262 9.723,30.145 11.394,30.246 11.833 C 30.256 11.879,30.321 12.198,30.390 12.542 C 30.459 12.885,30.584 13.167,30.669 13.167 C 30.754 13.167,30.780 13.279,30.727 13.417 C 30.674 13.554,30.703 13.667,30.792 13.667 C 31.537 13.667,31.511 22.297,30.761 23.917 C 30.633 24.192,30.354 24.896,30.140 25.483 C 29.925 26.069,29.544 26.757,29.292 27.011 C 29.040 27.266,28.833 27.540,28.833 27.621 C 28.833 27.833,27.769 28.833,27.543 28.833 C 27.438 28.833,27.247 28.984,27.118 29.168 C 26.850 29.551,25.350 30.191,24.000 30.500 C 23.496 30.616,22.978 30.794,22.849 30.897 C 22.529 31.152,17.470 31.152,17.151 30.897 C 16.629 30.481,15.743 30.467,15.669 30.874 C 15.528 31.641,15.589 34.156,15.752 34.319 C 16.978 35.544,27.646 35.211,28.949 33.908 C 29.082 33.775,29.260 33.657,29.345 33.646 C 29.882 33.574,30.500 33.322,30.500 33.176 C 30.500 33.102,30.713 32.999,30.973 32.947 C 31.234 32.895,31.627 32.662,31.848 32.429 C 32.069 32.196,32.314 32.004,32.393 32.003 C 32.628 31.998,33.587 31.125,33.538 30.961 C 33.512 30.877,33.561 30.852,33.646 30.904 C 33.856 31.034,36.110 28.598,36.515 27.804 C 36.694 27.454,36.909 27.167,36.992 27.167 C 37.148 27.167,37.426 26.517,37.366 26.292 C 37.348 26.223,37.397 26.167,37.475 26.167 C 37.616 26.167,38.055 25.248,38.252 24.542 C 38.309 24.335,38.424 24.167,38.507 24.167 C 38.642 24.167,39.072 22.922,39.242 22.044 C 39.277 21.859,39.387 21.418,39.485 21.062 C 39.584 20.707,39.713 19.835,39.773 19.125 C 39.832 18.415,39.945 17.833,40.024 17.833 C 40.102 17.833,40.167 17.158,40.167 16.333 C 40.167 15.444,40.099 14.833,40.000 14.833 C 39.908 14.833,39.833 14.542,39.833 14.185 C 39.833 12.864,38.893 9.121,38.489 8.833 C 38.425 8.787,38.190 8.375,37.968 7.917 C 37.394 6.735,37.117 6.333,36.877 6.333 C 36.761 6.333,36.667 6.230,36.667 6.104 C 36.667 5.834,34.208 3.500,33.924 3.500 C 33.817 3.500,33.565 3.347,33.364 3.159 C 32.915 2.741,31.047 1.889,30.254 1.740 C 29.932 1.679,29.704 1.575,29.745 1.508 C 29.831 1.369,27.790 0.892,26.167 0.673 C 25.571 0.592,20.058 0.519,13.917 0.511 C 7.775 0.502,2.120 0.447,1.349 0.388 L -0.052 0.280 0.066 1.848 M43.248 1.667 C 43.454 4.202,43.441 4.167,44.191 4.167 C 44.935 4.167,46.323 4.481,46.580 4.709 C 46.674 4.791,47.045 5.022,47.407 5.221 C 48.318 5.724,48.831 7.016,48.957 9.122 C 49.008 9.972,49.113 10.667,49.191 10.667 C 49.269 10.667,49.333 18.504,49.333 28.083 C 49.333 39.583,49.277 45.500,49.167 45.500 C 49.073 45.500,49.000 45.969,49.000 46.575 C 49.000 47.786,48.741 49.191,48.393 49.873 C 48.265 50.124,48.164 50.371,48.169 50.421 C 48.195 50.668,46.476 51.691,45.917 51.762 C 45.825 51.773,45.675 51.802,45.583 51.826 C 45.279 51.904,44.924 51.943,44.230 51.971 L 43.543 52.000 43.445 52.792 C 43.391 53.227,43.299 54.108,43.240 54.750 L 43.132 55.917 53.149 55.917 L 63.167 55.917 63.167 54.458 C 63.167 53.656,63.097 53.000,63.011 53.000 C 62.925 53.000,62.832 52.798,62.803 52.552 C 62.754 52.134,62.668 52.090,61.560 51.904 C 58.479 51.387,57.150 49.861,57.314 47.028 C 57.331 46.723,57.287 46.509,57.214 46.554 C 57.020 46.674,57.243 8.554,57.442 7.750 C 57.679 6.792,57.674 6.806,58.001 6.165 C 58.179 5.816,58.590 5.419,59.024 5.178 C 59.424 4.956,59.788 4.723,59.833 4.659 C 59.944 4.504,61.554 4.167,62.180 4.167 C 62.508 4.167,62.708 4.067,62.767 3.875 C 62.817 3.715,62.916 3.471,62.987 3.333 C 63.058 3.196,63.132 2.483,63.151 1.750 L 63.186 0.417 53.166 0.417 L 43.146 0.417 43.248 1.667 M69.552 1.917 C 69.689 4.271,69.578 4.095,71.000 4.217 C 72.066 4.308,72.588 4.439,72.917 4.698 C 73.008 4.770,73.414 5.074,73.819 5.373 C 74.223 5.672,74.578 6.029,74.606 6.167 C 74.635 6.304,74.773 6.827,74.913 7.328 C 75.052 7.829,75.167 8.481,75.167 8.776 C 75.167 9.072,75.242 9.360,75.333 9.417 C 75.443 9.484,75.500 15.804,75.500 27.833 C 75.500 39.863,75.443 46.182,75.333 46.250 C 75.242 46.307,75.165 46.667,75.164 47.052 C 75.160 48.013,74.777 49.559,74.403 50.119 C 74.232 50.374,74.111 50.645,74.134 50.721 C 74.156 50.796,74.107 50.816,74.023 50.764 C 73.939 50.713,73.769 50.794,73.644 50.944 C 73.382 51.260,72.442 51.692,71.833 51.777 C 69.459 52.108,69.686 51.848,69.548 54.401 L 69.459 56.053 70.855 55.944 C 71.622 55.884,80.323 55.835,90.189 55.834 L 108.129 55.833 108.238 55.042 C 108.646 52.067,109.067 49.714,109.228 49.510 C 109.371 49.327,109.368 49.298,109.215 49.390 C 109.081 49.471,109.094 49.357,109.256 49.047 C 109.389 48.792,109.498 48.455,109.499 48.298 C 109.500 48.075,109.873 46.367,110.238 44.917 C 110.601 43.472,110.473 42.957,109.648 42.552 C 106.776 41.142,106.764 41.140,106.500 42.083 C 106.385 42.496,106.227 42.833,106.150 42.833 C 106.073 42.833,106.054 42.946,106.106 43.083 C 106.159 43.221,106.127 43.333,106.036 43.333 C 105.878 43.333,105.582 44.111,105.639 44.375 C 105.654 44.444,105.600 44.500,105.518 44.500 C 105.392 44.500,105.304 44.717,105.131 45.458 C 105.115 45.527,104.969 45.726,104.807 45.900 C 104.644 46.075,104.551 46.281,104.599 46.359 C 104.647 46.436,104.614 46.500,104.526 46.500 C 104.375 46.500,103.752 47.426,103.705 47.720 C 103.694 47.795,103.399 48.068,103.050 48.325 C 102.702 48.582,102.231 48.970,102.005 49.187 C 101.496 49.675,100.723 50.095,99.700 50.441 C 99.269 50.587,98.879 50.764,98.833 50.835 C 98.132 51.917,86.780 51.815,85.541 50.714 C 85.289 50.491,84.917 50.195,84.715 50.056 C 83.646 49.324,83.591 48.807,83.534 38.875 L 83.482 29.833 86.366 29.836 C 90.617 29.840,93.822 30.274,94.417 30.926 C 94.508 31.027,94.885 31.340,95.255 31.622 C 95.624 31.905,96.030 32.402,96.158 32.727 C 96.285 33.052,96.433 33.291,96.486 33.259 C 96.540 33.226,96.599 33.414,96.618 33.677 C 96.637 33.940,96.760 34.364,96.890 34.619 C 97.021 34.875,97.180 35.533,97.244 36.082 C 97.307 36.632,97.381 37.103,97.407 37.129 C 97.526 37.248,99.506 37.498,100.333 37.499 L 101.250 37.500 101.250 28.167 C 101.250 23.033,101.212 18.834,101.167 18.835 C 100.860 18.840,97.997 19.187,97.625 19.265 C 97.220 19.349,97.167 19.435,97.167 20.005 C 97.167 21.359,95.774 24.727,95.202 24.756 C 95.137 24.759,94.932 24.846,94.746 24.950 C 94.398 25.144,92.569 25.654,91.833 25.763 C 91.604 25.796,89.635 25.875,87.458 25.938 L 83.500 26.053 83.500 15.110 L 83.500 4.167 88.197 4.167 C 92.596 4.167,95.833 4.380,95.833 4.670 C 95.833 4.739,96.114 4.849,96.458 4.913 C 97.403 5.091,99.033 5.822,99.481 6.269 C 99.700 6.488,99.953 6.667,100.044 6.667 C 100.414 6.667,102.031 8.559,102.427 9.457 C 102.658 9.979,102.909 10.445,102.984 10.494 C 103.156 10.605,103.614 12.451,103.767 13.646 L 103.882 14.542 105.101 14.431 C 106.514 14.303,107.269 14.075,107.398 13.738 C 107.448 13.607,107.610 13.500,107.758 13.500 C 108.036 13.500,107.957 12.524,107.663 12.333 C 107.490 12.221,106.922 7.819,106.566 3.833 C 106.407 2.046,106.254 0.554,106.226 0.518 C 106.198 0.483,97.915 0.445,87.820 0.435 L 69.464 0.417 69.552 1.917 M115.167 0.778 C 115.167 0.976,115.232 1.164,115.313 1.194 C 115.393 1.225,115.494 1.834,115.537 2.549 C 115.628 4.077,115.665 4.127,116.750 4.187 C 117.518 4.230,118.467 4.467,118.667 4.667 C 118.712 4.712,119.050 4.910,119.417 5.105 C 120.164 5.503,120.705 6.394,121.024 7.750 C 121.289 8.879,121.428 42.795,121.180 45.963 C 121.011 48.116,120.641 49.893,120.320 50.092 C 120.233 50.146,120.204 50.260,120.257 50.345 C 120.310 50.430,120.239 50.500,120.099 50.500 C 119.959 50.500,119.770 50.641,119.677 50.813 C 119.452 51.234,118.400 51.635,116.914 51.866 C 115.626 52.066,115.508 52.171,115.502 53.125 C 115.501 53.331,115.425 53.500,115.333 53.500 C 115.237 53.500,115.167 54.019,115.167 54.725 L 115.167 55.949 120.042 55.892 C 122.723 55.860,128.430 55.808,132.725 55.776 C 137.689 55.738,140.572 55.656,140.641 55.550 C 140.701 55.458,141.370 55.333,142.127 55.271 C 142.884 55.209,144.122 55.045,144.877 54.906 C 145.632 54.767,146.400 54.631,146.583 54.604 C 147.270 54.501,148.753 54.115,148.833 54.017 C 148.918 53.913,149.145 53.834,151.284 53.157 C 151.945 52.948,152.447 52.716,152.401 52.641 C 152.354 52.565,152.432 52.548,152.575 52.603 C 152.717 52.658,152.833 52.633,152.833 52.548 C 152.833 52.463,153.397 52.146,154.086 51.843 C 154.775 51.540,155.615 51.073,155.952 50.805 C 156.289 50.537,156.818 50.198,157.128 50.051 C 157.438 49.904,157.807 49.607,157.948 49.392 C 158.089 49.176,158.290 49.001,158.394 49.003 C 158.689 49.008,162.158 45.325,162.519 44.625 C 162.695 44.281,162.901 44.000,162.976 44.000 C 163.134 44.000,164.103 42.144,164.041 41.958 C 164.019 41.890,164.075 41.833,164.167 41.833 C 164.258 41.833,164.333 41.726,164.333 41.595 C 164.333 41.464,164.429 41.258,164.545 41.137 C 164.805 40.868,165.577 38.886,165.866 37.750 C 165.982 37.292,166.143 36.870,166.223 36.813 C 166.303 36.755,166.386 36.486,166.408 36.215 C 166.429 35.944,166.491 35.649,166.546 35.560 C 167.656 33.765,167.324 17.000,166.178 17.000 C 166.115 17.000,165.964 16.606,165.844 16.125 C 165.589 15.107,164.860 13.290,164.654 13.161 C 164.577 13.112,164.393 12.785,164.246 12.434 C 163.915 11.641,163.229 10.575,162.626 9.917 C 162.374 9.642,162.168 9.352,162.167 9.273 C 162.166 9.000,159.971 6.998,159.793 7.108 C 159.688 7.173,159.664 7.139,159.734 7.026 C 159.799 6.920,159.792 6.831,159.718 6.829 C 159.644 6.826,159.251 6.528,158.844 6.166 C 158.438 5.805,157.707 5.307,157.219 5.060 C 156.732 4.814,156.333 4.556,156.333 4.487 C 156.333 4.417,155.977 4.229,155.542 4.067 C 155.106 3.905,154.602 3.674,154.421 3.553 C 154.240 3.432,153.965 3.333,153.808 3.333 C 153.652 3.333,153.421 3.231,153.295 3.105 C 153.029 2.838,151.829 2.464,149.417 1.894 C 148.775 1.742,148.212 1.564,148.167 1.499 C 148.096 1.398,144.767 0.879,144.000 0.849 C 143.862 0.844,142.962 0.766,142.000 0.675 C 141.037 0.585,134.606 0.490,127.708 0.464 L 115.167 0.417 115.167 0.778 M173.226 1.849 C 173.393 4.180,173.386 4.167,174.362 4.167 C 175.230 4.167,176.667 4.465,176.667 4.646 C 176.667 4.704,176.896 4.854,177.177 4.978 C 178.015 5.349,178.793 6.707,179.005 8.167 C 179.193 9.455,178.736 17.563,178.485 17.407 C 178.424 17.370,178.365 17.732,178.352 18.211 C 178.340 18.691,178.226 20.208,178.098 21.583 C 177.971 22.958,177.821 24.683,177.764 25.417 C 177.310 31.307,177.012 34.680,176.935 34.804 C 176.885 34.884,176.729 36.368,176.589 38.100 C 176.312 41.515,176.003 44.719,175.900 45.250 C 175.838 45.564,175.691 46.369,175.568 47.059 C 175.537 47.228,175.426 47.471,175.321 47.598 C 175.216 47.725,175.174 47.946,175.229 48.090 C 175.284 48.233,175.269 48.313,175.195 48.267 C 175.120 48.221,174.920 48.574,174.750 49.050 C 174.177 50.653,172.715 51.647,170.475 51.956 C 169.771 52.053,169.745 52.124,169.570 54.444 L 169.458 55.917 176.521 55.874 C 180.405 55.851,184.008 55.813,184.526 55.791 C 185.045 55.768,185.434 55.806,185.391 55.875 C 185.349 55.944,185.624 56.000,186.004 56.000 L 186.695 56.000 186.594 54.542 C 186.418 51.990,186.448 52.053,185.364 51.917 C 184.424 51.800,182.082 50.974,182.240 50.815 C 182.287 50.769,182.090 50.474,181.803 50.160 C 181.014 49.296,180.778 48.169,180.775 45.250 C 180.772 42.471,181.264 36.282,181.531 35.727 C 181.626 35.531,181.676 35.032,181.643 34.618 C 181.610 34.204,181.625 33.891,181.675 33.922 C 181.726 33.953,182.013 31.115,182.314 27.614 C 182.615 24.114,182.924 21.100,183.002 20.917 C 183.115 20.649,183.488 17.230,183.504 16.307 C 183.506 16.184,183.686 16.516,183.903 17.044 C 184.120 17.572,184.420 18.190,184.568 18.417 C 184.717 18.644,184.841 18.867,184.844 18.912 C 184.853 19.061,185.681 20.902,186.157 21.833 C 186.415 22.337,186.834 23.275,187.088 23.917 C 187.342 24.558,187.604 25.121,187.670 25.167 C 187.781 25.243,188.431 26.730,188.874 27.917 C 188.977 28.192,189.145 28.502,189.249 28.605 C 189.352 28.709,189.722 29.515,190.071 30.397 C 190.420 31.279,190.764 32.000,190.835 32.000 C 190.906 32.000,191.009 32.179,191.064 32.397 C 191.118 32.616,191.378 33.272,191.639 33.856 C 191.901 34.439,192.120 34.983,192.127 35.065 C 192.133 35.146,192.204 35.259,192.284 35.315 C 192.455 35.434,193.333 37.376,193.333 37.634 C 193.333 37.731,193.427 37.909,193.542 38.030 C 193.745 38.243,194.260 39.350,194.672 40.458 C 194.783 40.756,194.924 41.000,194.985 41.000 C 195.046 41.000,195.108 41.162,195.123 41.360 C 195.138 41.558,195.214 41.764,195.293 41.818 C 195.371 41.872,195.715 42.573,196.056 43.374 C 196.398 44.176,196.818 45.076,196.992 45.374 C 197.165 45.673,197.543 46.535,197.832 47.292 C 198.121 48.048,198.424 48.667,198.504 48.667 C 198.585 48.667,198.724 48.910,198.814 49.208 C 199.067 50.050,199.861 51.907,200.010 52.002 C 200.083 52.050,200.413 52.759,200.744 53.579 C 201.074 54.400,201.403 55.111,201.474 55.160 C 201.544 55.210,201.701 55.494,201.821 55.792 L 202.040 56.333 203.229 56.321 C 204.870 56.303,205.735 56.026,205.803 55.495 C 205.833 55.269,205.947 55.008,206.057 54.917 C 206.168 54.825,206.467 54.188,206.722 53.500 C 206.977 52.813,207.364 51.875,207.583 51.417 C 208.178 50.167,209.006 47.950,208.912 47.857 C 208.867 47.812,208.967 47.619,209.135 47.429 C 209.302 47.239,209.645 46.521,209.896 45.833 C 210.147 45.146,210.532 44.208,210.752 43.748 C 211.210 42.790,212.002 40.737,212.095 40.262 C 212.130 40.086,212.231 39.897,212.319 39.842 C 212.488 39.738,213.500 37.221,213.500 36.904 C 213.500 36.802,213.650 36.545,213.833 36.333 C 214.134 35.987,214.234 35.648,214.212 35.043 C 214.208 34.930,214.260 34.871,214.327 34.913 C 214.395 34.955,214.551 34.673,214.674 34.286 C 214.798 33.900,215.113 33.152,215.376 32.626 C 215.639 32.099,215.865 31.518,215.879 31.334 C 215.893 31.150,215.950 31.000,216.005 31.000 C 216.061 31.000,216.278 30.475,216.488 29.833 C 216.699 29.192,216.934 28.667,217.011 28.667 C 217.088 28.667,217.223 28.423,217.312 28.125 C 217.604 27.141,218.159 25.691,218.490 25.049 C 218.907 24.241,219.833 21.824,219.833 21.545 C 219.833 21.429,219.903 21.333,219.988 21.333 C 220.146 21.333,220.648 20.109,221.129 18.551 C 221.276 18.075,221.453 17.721,221.524 17.765 C 221.594 17.808,221.730 17.560,221.826 17.213 C 222.186 15.913,222.278 16.222,222.585 19.747 C 222.757 21.720,222.947 23.333,223.007 23.333 C 223.068 23.333,223.166 23.952,223.226 24.708 C 223.286 25.465,223.605 28.821,223.936 32.167 C 224.266 35.512,224.534 38.494,224.530 38.792 C 224.527 39.090,224.581 39.333,224.651 39.333 C 224.851 39.333,225.251 44.505,225.244 47.000 C 225.235 50.543,224.430 51.486,221.042 51.929 C 220.467 52.004,220.167 52.121,220.167 52.271 C 220.167 52.397,220.099 52.500,220.016 52.500 C 219.933 52.500,219.902 52.642,219.947 52.815 C 219.992 52.988,219.948 53.179,219.848 53.241 C 219.743 53.306,219.667 53.892,219.667 54.635 L 219.667 55.917 229.583 55.917 L 239.500 55.917 239.480 54.500 C 239.453 52.558,239.340 52.116,238.832 51.975 C 236.624 51.363,236.521 51.315,235.763 50.538 C 234.972 49.729,234.330 48.190,234.059 46.454 C 233.999 46.067,233.891 45.711,233.820 45.664 C 233.681 45.572,233.185 40.934,232.743 35.583 C 232.592 33.750,232.406 32.100,232.330 31.917 C 232.255 31.733,232.108 30.571,232.004 29.333 C 231.900 28.096,231.787 26.783,231.751 26.417 C 231.670 25.572,231.469 23.240,231.420 22.583 C 231.174 19.265,230.921 16.734,230.828 16.667 C 230.701 16.575,230.132 9.691,230.237 9.521 C 230.274 9.462,230.323 9.040,230.348 8.582 C 230.399 7.651,230.628 6.833,230.838 6.833 C 230.915 6.833,231.029 6.665,231.091 6.458 C 231.257 5.913,231.833 5.339,232.494 5.062 C 232.812 4.929,233.120 4.743,233.178 4.648 C 233.317 4.424,234.401 4.176,235.264 4.171 C 235.685 4.168,235.952 4.087,235.964 3.958 C 235.974 3.844,236.059 3.225,236.153 2.583 C 236.246 1.942,236.325 1.192,236.328 0.917 L 236.333 0.417 229.900 0.442 L 223.466 0.467 223.006 1.442 C 222.753 1.978,222.334 3.054,222.074 3.833 C 221.814 4.612,221.549 5.287,221.484 5.333 C 221.375 5.410,221.059 6.229,220.389 8.167 C 220.247 8.579,220.054 9.010,219.961 9.125 C 219.869 9.240,219.858 9.334,219.938 9.336 C 220.018 9.337,220.000 9.394,219.897 9.461 C 219.697 9.593,218.833 11.974,218.833 12.395 C 218.833 12.535,218.702 12.727,218.542 12.820 C 218.381 12.913,218.315 12.992,218.395 12.995 C 218.475 12.998,218.463 13.094,218.368 13.208 C 218.273 13.323,217.975 14.054,217.704 14.833 C 217.434 15.612,217.042 16.625,216.833 17.083 C 216.624 17.542,216.395 18.104,216.323 18.333 C 215.993 19.387,215.456 20.758,215.343 20.833 C 215.274 20.879,214.927 21.779,214.572 22.833 C 214.217 23.887,213.849 24.805,213.755 24.872 C 213.645 24.951,213.643 24.997,213.750 25.000 C 213.842 25.003,213.814 25.070,213.688 25.150 C 213.561 25.230,213.458 25.490,213.458 25.728 C 213.458 25.966,213.410 26.131,213.351 26.095 C 213.293 26.058,213.062 26.585,212.840 27.264 C 212.617 27.944,212.362 28.500,212.273 28.500 C 212.184 28.500,212.160 28.549,212.221 28.610 C 212.281 28.670,212.267 28.801,212.189 28.901 C 212.112 29.001,211.840 29.683,211.586 30.417 C 211.332 31.150,211.024 31.947,210.902 32.187 C 210.780 32.428,210.727 32.671,210.784 32.729 C 210.842 32.786,210.804 32.833,210.701 32.833 C 210.555 32.833,210.197 33.715,210.092 34.333 C 210.085 34.379,210.033 34.492,209.978 34.583 C 209.923 34.675,209.749 35.144,209.592 35.625 C 209.435 36.106,209.246 36.500,209.173 36.500 C 209.099 36.500,208.999 36.669,208.951 36.875 C 208.783 37.587,207.713 40.491,207.643 40.421 C 207.605 40.383,207.282 41.210,206.924 42.259 C 206.567 43.308,206.219 44.167,206.150 44.167 C 206.081 44.167,205.999 44.297,205.968 44.457 C 205.938 44.617,205.659 44.092,205.349 43.291 C 205.039 42.489,204.739 41.833,204.682 41.833 C 204.624 41.833,204.397 41.365,204.176 40.792 C 203.955 40.219,203.501 39.188,203.166 38.500 C 202.831 37.813,202.345 36.706,202.086 36.042 C 201.826 35.377,201.557 34.833,201.487 34.833 C 201.417 34.833,201.268 34.552,201.157 34.208 C 201.046 33.865,200.837 33.358,200.693 33.083 C 200.415 32.554,200.387 32.472,200.354 32.095 C 200.343 31.964,200.221 31.745,200.084 31.608 C 199.877 31.401,199.491 30.650,199.428 30.333 C 199.374 30.058,198.584 28.236,198.490 28.167 C 198.427 28.121,198.208 27.671,198.005 27.167 C 197.227 25.243,197.112 25.000,196.975 25.000 C 196.897 25.000,196.833 24.850,196.833 24.667 C 196.833 24.483,196.758 24.333,196.667 24.333 C 196.575 24.333,196.516 24.277,196.535 24.208 C 196.585 24.026,195.873 22.210,195.408 21.336 C 194.982 20.536,194.000 18.268,194.000 18.085 C 194.000 18.025,193.884 17.860,193.742 17.718 C 193.600 17.576,193.440 17.244,193.388 16.980 C 193.335 16.716,193.226 16.500,193.146 16.500 C 193.066 16.500,193.014 16.444,193.032 16.375 C 193.080 16.184,192.436 14.500,192.315 14.500 C 192.256 14.500,191.961 13.866,191.660 13.091 C 191.358 12.315,191.050 11.719,190.974 11.766 C 190.899 11.812,190.882 11.734,190.936 11.592 C 190.991 11.450,190.958 11.333,190.862 11.333 C 190.719 11.333,190.456 10.830,190.425 10.495 C 190.410 10.338,189.812 8.954,189.166 7.583 C 188.821 6.850,188.400 5.900,188.231 5.472 C 188.062 5.044,187.875 4.725,187.814 4.762 C 187.754 4.799,187.713 4.737,187.723 4.623 C 187.733 4.510,187.579 4.079,187.381 3.667 C 187.183 3.254,186.853 2.485,186.647 1.958 C 186.441 1.431,186.220 1.000,186.155 1.000 C 186.091 1.000,185.997 0.840,185.946 0.645 C 185.859 0.313,185.782 0.297,184.718 0.402 C 183.277 0.543,175.596 0.535,174.182 0.391 L 173.114 0.282 173.226 1.849 M299.917 1.625 C 299.917 2.290,299.973 2.833,300.042 2.833 C 300.110 2.833,300.168 3.040,300.169 3.292 C 300.173 3.987,300.349 4.139,301.253 4.224 C 302.242 4.318,303.007 4.500,303.244 4.698 C 303.339 4.777,303.763 5.066,304.187 5.340 C 304.611 5.613,305.159 6.141,305.405 6.513 L 305.852 7.188 305.784 26.303 C 305.700 49.495,305.762 48.801,303.559 51.106 C 303.207 51.475,301.897 51.934,300.917 52.032 C 300.343 52.090,300.173 52.262,300.169 52.792 C 300.168 52.998,300.073 53.168,299.958 53.169 C 299.819 53.171,299.833 53.226,300.000 53.333 C 300.137 53.422,300.175 53.496,300.083 53.497 C 299.988 53.499,299.917 54.016,299.917 54.708 L 299.917 55.917 308.125 55.917 L 316.333 55.917 316.333 54.898 C 316.333 54.034,316.089 52.196,315.957 52.070 C 315.935 52.048,315.504 52.000,315.000 51.961 C 313.946 51.882,313.054 51.534,312.603 51.027 C 312.430 50.833,312.205 50.722,312.103 50.781 C 312.000 50.839,311.971 50.827,312.037 50.754 C 312.103 50.681,312.009 50.413,311.828 50.159 C 311.647 49.905,311.368 49.184,311.208 48.557 C 311.048 47.930,310.869 47.379,310.812 47.333 C 310.239 46.879,310.081 13.006,310.653 13.364 C 310.831 13.475,311.049 13.719,311.137 13.908 C 311.306 14.268,313.123 16.647,314.036 17.704 C 314.331 18.046,314.624 18.463,314.687 18.633 C 314.749 18.802,315.033 19.160,315.317 19.428 C 315.601 19.696,315.833 19.994,315.833 20.091 C 315.833 20.187,316.152 20.598,316.542 21.003 C 316.931 21.409,317.250 21.794,317.250 21.860 C 317.250 21.926,317.657 22.491,318.155 23.115 C 318.653 23.739,319.204 24.494,319.380 24.792 C 319.556 25.090,319.765 25.333,319.845 25.333 C 319.924 25.333,320.242 25.728,320.551 26.211 C 320.860 26.694,321.244 27.220,321.405 27.381 C 321.565 27.541,321.947 28.037,322.253 28.481 C 322.559 28.926,323.005 29.502,323.245 29.761 C 323.486 30.020,323.842 30.517,324.038 30.866 C 324.234 31.215,324.452 31.500,324.522 31.500 C 324.592 31.500,324.923 31.913,325.258 32.418 C 325.593 32.923,325.955 33.392,326.063 33.460 C 326.170 33.528,326.401 33.808,326.577 34.083 C 326.943 34.658,328.573 36.780,329.373 37.725 C 329.672 38.077,329.966 38.495,330.025 38.654 C 330.085 38.812,330.366 39.160,330.650 39.428 C 330.934 39.696,331.167 39.997,331.167 40.097 C 331.167 40.196,331.467 40.603,331.833 41.000 C 332.200 41.397,332.500 41.752,332.500 41.788 C 332.500 41.993,333.641 43.303,333.736 43.208 C 333.799 43.145,333.801 43.222,333.741 43.380 C 333.677 43.546,333.710 43.667,333.818 43.667 C 333.920 43.667,334.264 44.072,334.581 44.568 C 334.898 45.064,335.216 45.495,335.287 45.528 C 335.358 45.560,335.642 45.841,335.917 46.152 C 336.192 46.464,336.304 46.657,336.167 46.582 C 336.029 46.507,336.104 46.658,336.333 46.918 C 336.563 47.177,336.850 47.508,336.973 47.653 C 337.244 47.974,338.565 49.761,339.250 50.733 C 339.525 51.124,339.956 51.634,340.208 51.866 C 340.460 52.098,340.667 52.365,340.667 52.460 C 340.667 52.554,340.875 52.855,341.131 53.128 C 341.386 53.401,341.796 53.929,342.041 54.300 C 343.049 55.822,343.468 56.167,344.309 56.165 C 345.465 56.163,346.836 55.972,346.746 55.826 C 346.702 55.756,346.814 55.736,346.994 55.784 C 347.319 55.868,347.323 55.650,347.369 32.794 C 347.403 16.158,347.468 9.653,347.602 9.484 C 347.704 9.355,347.839 8.912,347.901 8.500 C 348.279 5.982,349.332 4.609,351.167 4.242 C 352.029 4.070,352.086 4.028,352.136 3.529 C 352.164 3.238,352.258 3.000,352.344 3.000 C 352.430 3.000,352.500 2.419,352.500 1.708 L 352.500 0.417 344.579 0.417 L 336.659 0.417 336.754 1.167 C 336.807 1.579,336.919 2.217,337.004 2.583 C 337.089 2.950,337.179 3.437,337.204 3.667 C 337.245 4.041,337.347 4.095,338.208 4.202 C 338.735 4.268,339.306 4.396,339.478 4.488 C 339.649 4.580,339.849 4.601,339.921 4.536 C 339.994 4.470,340.003 4.505,339.941 4.613 C 339.876 4.727,339.966 4.853,340.157 4.914 C 340.338 4.971,340.668 5.235,340.891 5.500 C 341.114 5.765,341.348 5.929,341.412 5.866 C 341.476 5.802,341.506 5.825,341.478 5.917 C 341.451 6.008,341.535 6.271,341.665 6.500 C 341.933 6.974,341.908 6.894,342.243 8.333 C 342.690 10.257,342.848 16.167,342.798 29.050 L 342.750 41.518 341.549 39.884 C 340.889 38.985,340.208 38.100,340.037 37.917 C 339.866 37.733,339.484 37.227,339.188 36.792 C 338.893 36.356,338.593 36.000,338.523 36.000 C 338.452 36.000,338.228 35.704,338.024 35.341 C 337.821 34.979,337.396 34.416,337.080 34.091 C 336.764 33.766,336.537 33.500,336.575 33.500 C 336.710 33.500,335.525 31.841,335.122 31.465 C 334.897 31.255,334.663 30.923,334.601 30.726 C 334.539 30.530,334.230 30.118,333.913 29.810 C 333.596 29.502,333.336 29.188,333.335 29.112 C 333.333 28.916,331.947 27.167,331.794 27.167 C 331.724 27.167,331.667 27.089,331.667 26.993 C 331.667 26.793,330.980 25.778,330.787 25.693 C 330.715 25.661,330.351 25.175,329.977 24.613 C 329.604 24.050,329.156 23.491,328.982 23.369 C 328.809 23.247,328.667 23.052,328.667 22.935 C 328.667 22.818,328.379 22.410,328.027 22.029 C 327.675 21.648,327.410 21.312,327.439 21.283 C 327.468 21.255,327.268 20.987,326.996 20.689 C 326.723 20.390,326.500 20.072,326.500 19.981 C 326.500 19.891,326.237 19.547,325.917 19.216 C 325.596 18.886,325.331 18.533,325.328 18.433 C 325.320 18.176,324.733 17.500,324.518 17.500 C 324.420 17.500,324.292 17.311,324.234 17.079 C 324.176 16.848,323.968 16.547,323.773 16.410 C 323.577 16.272,323.417 16.105,323.417 16.038 C 323.417 15.971,323.355 15.937,323.279 15.962 C 323.204 15.988,323.186 15.937,323.239 15.851 C 323.293 15.764,323.241 15.594,323.124 15.472 C 322.725 15.054,321.833 13.869,321.833 13.755 C 321.833 13.692,321.602 13.409,321.319 13.127 C 321.036 12.844,320.736 12.432,320.652 12.213 C 320.561 11.972,320.424 11.861,320.308 11.932 C 320.190 12.005,320.160 11.979,320.231 11.864 C 320.295 11.761,320.156 11.511,319.924 11.308 C 319.691 11.106,319.500 10.856,319.500 10.753 C 319.500 10.649,319.237 10.279,318.917 9.928 C 318.596 9.578,318.333 9.243,318.333 9.183 C 318.333 9.123,318.114 8.834,317.846 8.540 C 317.577 8.246,317.310 7.855,317.251 7.670 C 317.192 7.485,317.037 7.333,316.905 7.333 C 316.774 7.333,316.667 7.267,316.667 7.186 C 316.667 6.919,315.460 5.172,315.331 5.251 C 315.262 5.294,315.116 5.114,315.007 4.850 C 314.898 4.587,314.552 4.091,314.238 3.748 C 313.924 3.405,313.667 3.092,313.667 3.052 C 313.667 2.966,312.662 1.615,312.095 0.938 L 311.693 0.459 305.805 0.438 L 299.917 0.417 299.917 1.625 M357.667 2.248 C 357.667 4.540,357.218 9.491,356.916 10.536 C 356.523 11.892,356.409 13.667,356.715 13.667 C 356.856 13.667,356.999 13.746,357.031 13.842 C 357.119 14.106,358.271 14.325,359.592 14.329 L 360.768 14.333 360.984 13.042 C 361.103 12.331,361.353 11.412,361.541 11.000 C 361.729 10.587,361.890 10.051,361.900 9.808 C 361.909 9.565,361.973 9.401,362.042 9.443 C 362.110 9.485,362.167 9.399,362.167 9.252 C 362.167 9.104,362.295 8.743,362.451 8.450 C 362.734 7.920,362.773 7.819,362.813 7.500 C 362.824 7.408,362.895 7.352,362.971 7.375 C 363.046 7.398,363.428 7.085,363.819 6.679 C 364.730 5.734,365.692 5.227,367.069 4.966 C 367.673 4.851,368.167 4.699,368.167 4.629 C 368.167 4.558,369.629 4.500,371.417 4.500 L 374.667 4.500 374.665 25.125 C 374.664 49.339,374.675 49.135,373.248 50.542 C 372.442 51.336,371.340 51.716,369.189 51.941 C 367.980 52.067,367.985 52.058,367.876 54.250 L 367.793 55.917 378.571 55.917 L 389.349 55.917 389.319 54.458 C 389.303 53.656,389.229 53.000,389.156 53.000 C 389.082 53.000,388.998 52.794,388.969 52.542 C 388.932 52.220,388.817 52.078,388.583 52.065 C 385.677 51.906,383.599 50.868,383.228 49.390 C 383.175 49.177,383.077 49.036,383.010 49.077 C 382.943 49.118,382.882 49.062,382.873 48.951 C 382.865 48.840,382.780 47.962,382.685 47.000 C 382.575 45.898,382.509 37.702,382.506 24.875 L 382.500 4.500 385.667 4.500 C 387.667 4.500,388.833 4.561,388.833 4.667 C 388.833 4.758,389.002 4.834,389.208 4.835 C 389.767 4.838,391.096 5.272,391.865 5.703 C 392.500 6.060,393.920 7.330,393.689 7.336 C 393.631 7.337,393.667 7.394,393.770 7.461 C 394.073 7.660,394.771 9.178,395.014 10.167 C 395.138 10.671,395.307 11.131,395.389 11.189 C 395.472 11.247,395.579 11.976,395.626 12.810 C 395.725 14.542,395.797 14.619,397.141 14.416 C 397.568 14.352,398.131 14.272,398.392 14.239 C 400.041 14.028,400.071 13.961,399.854 10.868 C 399.753 9.428,399.621 6.488,399.560 4.333 L 399.450 0.417 378.558 0.417 L 357.667 0.417 357.667 2.248 M140.167 4.258 C 141.129 4.420,141.954 4.604,142.000 4.667 C 142.046 4.730,142.308 4.835,142.583 4.899 C 143.702 5.160,146.333 6.048,146.333 6.165 C 146.333 6.234,146.797 6.491,147.363 6.736 C 147.929 6.982,148.903 7.554,149.527 8.008 C 150.151 8.462,150.703 8.833,150.753 8.833 C 150.996 8.833,154.333 12.426,154.333 12.687 C 154.333 12.778,154.427 12.799,154.542 12.733 C 154.656 12.667,154.695 12.674,154.627 12.749 C 154.505 12.883,155.062 13.930,155.426 14.250 C 155.530 14.342,155.714 14.679,155.836 15.000 C 155.957 15.321,156.311 16.108,156.623 16.749 C 157.230 18.001,157.893 20.322,158.086 21.873 C 158.151 22.399,158.257 22.797,158.321 22.758 C 158.385 22.718,158.422 23.057,158.404 23.510 C 158.385 23.963,158.437 24.333,158.519 24.333 C 158.724 24.333,158.711 31.953,158.505 32.080 C 158.416 32.135,158.369 32.479,158.400 32.844 C 158.431 33.209,158.402 33.541,158.336 33.582 C 158.269 33.623,158.169 34.090,158.113 34.620 C 157.967 36.008,157.237 39.117,156.957 39.548 C 156.826 39.751,156.552 40.367,156.349 40.917 C 155.704 42.665,152.300 47.279,151.744 47.159 C 151.686 47.146,151.418 47.333,151.148 47.574 C 150.877 47.815,150.152 48.287,149.536 48.622 C 148.920 48.957,148.375 49.291,148.324 49.364 C 148.211 49.527,144.696 50.667,144.307 50.667 C 144.153 50.667,144.003 50.737,143.972 50.823 C 143.630 51.782,131.667 51.806,131.667 50.848 C 131.667 50.769,131.413 50.584,131.102 50.437 C 130.450 50.127,129.928 49.163,129.616 47.691 C 129.467 46.989,129.417 41.387,129.417 25.591 L 129.417 4.432 130.039 4.302 C 132.530 3.785,137.227 3.764,140.167 4.258 M270.292 4.355 C 270.865 4.453,271.333 4.593,271.333 4.665 C 271.333 4.737,271.597 4.846,271.919 4.906 C 272.878 5.086,274.679 5.884,275.782 6.618 C 276.349 6.996,276.969 7.354,277.159 7.414 C 277.349 7.475,277.469 7.582,277.425 7.652 C 277.382 7.723,277.685 8.035,278.099 8.345 C 278.513 8.655,279.040 9.156,279.270 9.457 C 279.514 9.777,279.771 9.959,279.886 9.893 C 279.994 9.831,280.030 9.839,279.964 9.912 C 279.898 9.985,280.030 10.190,280.256 10.368 C 280.482 10.545,280.669 10.779,280.672 10.887 C 280.679 11.146,281.436 12.000,281.659 12.000 C 281.755 12.000,281.833 12.108,281.833 12.239 C 281.833 12.477,282.749 14.072,283.101 14.446 C 283.202 14.553,283.454 15.060,283.662 15.571 C 283.869 16.082,284.089 16.500,284.151 16.500 C 284.212 16.500,284.275 16.662,284.290 16.860 C 284.304 17.058,284.414 17.282,284.533 17.357 C 284.652 17.433,284.685 17.496,284.605 17.497 C 284.525 17.499,284.544 17.602,284.647 17.727 C 284.862 17.986,285.829 21.099,285.831 21.542 C 285.832 21.702,285.916 21.833,286.018 21.833 C 286.122 21.833,286.156 21.955,286.096 22.112 C 286.037 22.265,286.057 22.434,286.141 22.487 C 286.764 22.883,287.163 31.789,286.688 34.708 C 286.439 36.236,286.360 36.810,286.345 37.218 C 286.338 37.403,286.258 37.473,286.140 37.400 C 286.008 37.319,285.977 37.394,286.041 37.641 C 286.093 37.838,286.076 38.000,286.003 38.000 C 285.930 38.000,285.821 38.266,285.759 38.591 C 285.581 39.541,284.807 41.739,284.603 41.872 C 284.498 41.942,284.489 41.997,284.583 42.000 C 284.683 42.003,284.677 42.055,284.569 42.128 C 284.361 42.269,283.167 44.712,283.167 44.997 C 283.167 45.101,283.099 45.145,283.017 45.094 C 282.935 45.043,282.626 45.377,282.331 45.836 C 282.037 46.295,281.708 46.726,281.602 46.794 C 281.495 46.861,281.155 47.242,280.846 47.639 C 280.537 48.036,280.103 48.429,279.882 48.513 C 279.639 48.605,279.527 48.742,279.599 48.859 C 279.667 48.968,279.646 49.007,279.551 48.948 C 279.459 48.891,279.227 49.025,279.035 49.246 C 278.843 49.467,278.175 49.891,277.551 50.189 C 276.927 50.487,276.373 50.794,276.319 50.872 C 275.520 52.034,268.755 52.267,264.750 51.271 C 264.189 51.132,263.833 50.957,263.833 50.822 C 263.833 50.737,263.739 50.667,263.623 50.667 C 263.384 50.667,260.671 49.344,260.897 49.338 C 261.040 49.333,260.595 48.972,259.915 48.539 C 259.013 47.966,258.593 47.668,258.686 47.667 C 258.742 47.667,258.235 47.096,257.559 46.397 C 256.884 45.699,256.211 44.875,256.064 44.566 C 255.917 44.256,255.718 44.051,255.623 44.111 C 255.527 44.170,255.497 44.140,255.556 44.045 C 255.615 43.949,255.549 43.777,255.410 43.661 C 255.270 43.545,254.896 42.922,254.578 42.277 C 254.260 41.631,253.934 41.061,253.854 41.010 C 253.701 40.912,252.500 37.806,252.500 37.507 C 252.500 37.412,252.443 37.333,252.373 37.333 C 252.261 37.333,251.954 36.350,251.565 34.750 C 251.499 34.475,251.431 34.212,251.416 34.167 C 251.401 34.121,251.329 33.616,251.256 33.045 C 251.184 32.474,251.075 32.037,251.014 32.075 C 250.953 32.113,250.934 31.876,250.972 31.549 C 251.017 31.169,250.980 30.993,250.871 31.060 C 250.610 31.222,250.443 27.729,250.538 24.094 C 250.594 21.947,250.682 20.912,250.811 20.869 C 250.915 20.834,251.000 20.643,251.000 20.444 C 251.000 19.988,251.410 18.033,251.757 16.833 C 251.903 16.329,252.063 15.711,252.113 15.460 C 252.163 15.209,252.263 15.040,252.335 15.084 C 252.500 15.186,252.699 14.688,252.574 14.485 C 252.522 14.402,252.546 14.333,252.626 14.333 C 252.706 14.333,252.944 13.918,253.155 13.410 C 253.365 12.902,253.628 12.396,253.738 12.285 C 253.848 12.174,254.152 11.708,254.414 11.250 C 254.950 10.309,255.135 10.090,256.901 8.308 C 257.596 7.607,258.447 6.887,258.791 6.709 C 259.135 6.530,259.379 6.325,259.333 6.253 C 259.262 6.140,259.692 5.897,260.250 5.736 C 260.342 5.709,260.867 5.497,261.417 5.264 C 261.967 5.032,262.510 4.839,262.625 4.837 C 262.740 4.835,262.833 4.769,262.833 4.690 C 262.833 4.612,263.377 4.462,264.042 4.357 C 264.706 4.253,265.438 4.135,265.667 4.096 C 266.278 3.990,269.089 4.148,270.292 4.355 M251.052 71.007 C 250.977 71.077,250.617 71.177,250.250 71.230 C 249.883 71.283,249.388 71.365,249.148 71.412 C 248.558 71.529,247.122 72.173,246.917 72.414 C 246.825 72.521,246.429 72.855,246.037 73.156 C 245.644 73.457,245.202 73.938,245.053 74.226 C 244.904 74.514,244.690 74.825,244.578 74.917 C 244.395 75.065,244.123 75.806,244.088 76.250 C 244.081 76.342,244.008 76.523,243.927 76.653 C 243.451 77.414,243.934 81.577,244.571 82.214 C 244.687 82.330,244.981 82.741,245.226 83.129 C 245.471 83.516,245.777 83.833,245.907 83.833 C 246.037 83.833,246.242 83.931,246.363 84.050 C 246.732 84.413,248.473 85.353,248.873 85.405 C 249.080 85.433,249.466 85.542,249.729 85.648 C 250.365 85.904,251.500 86.155,251.500 86.040 C 251.500 85.989,251.631 86.060,251.792 86.198 C 251.952 86.335,252.561 86.621,253.144 86.834 C 253.986 87.141,254.303 87.362,254.682 87.902 C 254.946 88.277,255.237 88.674,255.330 88.785 C 255.549 89.045,255.552 90.333,255.333 90.333 C 255.242 90.333,255.166 90.465,255.166 90.625 C 255.163 91.821,253.511 92.941,251.681 92.985 C 250.413 93.015,249.013 92.779,248.833 92.505 C 248.787 92.434,248.338 92.171,247.833 91.920 C 247.329 91.669,246.736 91.303,246.515 91.107 C 246.283 90.901,246.165 90.856,246.235 91.000 C 246.326 91.184,246.299 91.179,246.134 90.979 C 245.917 90.717,245.002 90.599,244.833 90.811 C 244.787 90.869,244.605 90.997,244.428 91.095 C 244.250 91.192,243.925 91.557,243.705 91.905 C 243.485 92.253,243.405 92.478,243.527 92.407 C 243.763 92.269,243.202 92.999,242.917 93.202 C 242.536 93.474,242.733 94.014,243.418 94.576 C 243.806 94.894,244.171 95.107,244.229 95.049 C 244.286 94.992,244.333 95.032,244.333 95.139 C 244.333 95.246,244.448 95.333,244.589 95.333 C 244.729 95.333,244.885 95.442,244.936 95.574 C 245.063 95.904,246.952 96.592,248.659 96.931 C 251.460 97.487,255.587 96.913,256.686 95.814 C 256.859 95.641,257.056 95.499,257.125 95.498 C 257.635 95.490,259.206 93.413,259.581 92.250 C 259.729 91.792,259.940 91.237,260.050 91.016 C 260.308 90.500,260.322 87.035,260.067 86.869 C 259.967 86.804,259.831 86.530,259.765 86.260 C 259.699 85.991,259.499 85.567,259.322 85.318 C 259.145 85.069,259.000 84.792,259.000 84.703 C 259.000 84.313,255.806 82.261,255.365 82.368 C 255.302 82.383,254.960 82.269,254.605 82.114 C 254.250 81.960,253.856 81.833,253.730 81.833 C 253.603 81.833,253.500 81.770,253.500 81.693 C 253.500 81.559,251.716 81.071,251.458 81.135 C 251.390 81.153,251.333 81.101,251.333 81.021 C 251.333 80.941,251.116 80.832,250.850 80.778 C 250.410 80.690,250.145 80.501,249.060 79.497 C 248.187 78.689,248.443 76.943,249.549 76.165 C 249.935 75.894,250.361 75.577,250.496 75.461 C 250.862 75.147,253.994 75.123,254.113 75.434 C 254.162 75.562,254.279 75.667,254.373 75.667 C 254.467 75.667,255.060 75.929,255.689 76.250 C 257.639 77.244,258.370 77.038,259.144 75.275 C 259.432 74.620,259.667 73.956,259.667 73.800 C 259.667 73.506,258.698 72.667,258.359 72.667 C 258.253 72.667,258.167 72.594,258.167 72.504 C 258.167 72.268,257.254 71.833,256.758 71.833 C 256.525 71.833,256.333 71.769,256.333 71.690 C 256.333 71.529,254.699 71.167,253.972 71.167 C 253.712 71.167,253.500 71.099,253.500 71.016 C 253.500 70.834,251.244 70.826,251.052 71.007 M43.170 79.375 C 43.172 83.859,43.247 87.933,43.341 88.583 C 43.560 90.112,44.005 91.683,44.186 91.571 C 44.265 91.523,44.289 91.589,44.239 91.720 C 44.188 91.850,44.246 92.061,44.365 92.188 C 44.485 92.315,44.862 92.831,45.203 93.334 C 45.787 94.197,46.875 95.231,47.092 95.129 C 47.146 95.104,47.264 95.215,47.354 95.377 C 47.898 96.349,50.675 97.078,53.833 97.078 C 58.047 97.078,60.342 96.104,62.464 93.417 C 64.345 91.036,64.387 90.755,64.459 80.208 L 64.519 71.333 62.020 71.333 L 59.522 71.333 59.462 79.792 C 59.397 88.848,59.296 89.885,58.430 90.369 C 58.285 90.450,58.167 90.619,58.167 90.743 C 58.167 91.046,57.271 91.785,56.527 92.096 C 56.198 92.234,55.872 92.437,55.804 92.548 C 55.639 92.815,52.207 92.831,52.036 92.565 C 51.970 92.463,51.617 92.276,51.250 92.148 C 50.501 91.888,49.905 91.408,49.597 90.815 C 49.483 90.596,49.283 90.442,49.153 90.472 C 49.023 90.503,48.972 90.472,49.040 90.404 C 49.108 90.336,49.097 90.199,49.016 90.099 C 48.405 89.348,48.333 88.264,48.333 79.720 L 48.333 71.333 45.750 71.333 L 43.167 71.333 43.170 79.375 M81.000 84.167 L 81.000 97.000 83.250 97.000 L 85.500 97.000 85.500 88.477 L 85.500 79.954 86.250 80.759 C 86.662 81.202,87.000 81.653,87.000 81.761 C 87.000 81.869,87.300 82.248,87.667 82.603 C 88.033 82.959,88.333 83.333,88.333 83.434 C 88.333 83.535,88.671 83.966,89.085 84.391 C 89.498 84.816,89.819 85.184,89.799 85.207 C 89.692 85.331,90.578 86.305,90.719 86.218 C 90.810 86.161,90.834 86.197,90.772 86.297 C 90.710 86.398,90.768 86.540,90.901 86.615 C 91.034 86.689,91.146 86.808,91.150 86.879 C 91.160 87.070,91.668 87.760,92.375 88.543 C 92.719 88.924,93.000 89.314,93.001 89.409 C 93.001 89.505,93.339 89.939,93.751 90.374 C 94.163 90.809,94.500 91.224,94.500 91.296 C 94.500 91.367,94.706 91.653,94.958 91.930 C 95.210 92.208,95.679 92.787,96.000 93.218 C 96.321 93.648,96.832 94.282,97.135 94.625 C 97.438 94.969,97.787 95.438,97.910 95.667 C 98.416 96.607,99.106 96.903,100.958 96.973 L 102.667 97.038 102.667 84.186 L 102.667 71.333 100.418 71.333 L 98.170 71.333 98.127 79.875 C 98.100 85.193,98.026 88.291,97.931 88.083 C 97.639 87.443,97.140 86.830,96.987 86.925 C 96.903 86.977,96.833 86.911,96.833 86.777 C 96.833 86.534,94.543 83.448,93.782 82.667 C 93.559 82.438,93.240 82.025,93.074 81.750 C 92.907 81.475,92.578 81.054,92.343 80.815 C 92.109 80.577,91.705 80.069,91.446 79.688 C 91.187 79.307,90.906 79.039,90.821 79.091 C 90.736 79.143,90.667 79.069,90.667 78.925 C 90.667 78.695,88.533 75.809,87.703 74.917 C 87.532 74.733,87.151 74.227,86.855 73.792 C 86.559 73.356,86.244 73.000,86.155 73.000 C 86.065 73.000,85.919 72.808,85.830 72.573 C 85.726 72.300,85.592 72.190,85.459 72.267 C 85.344 72.333,85.307 72.324,85.377 72.247 C 85.849 71.727,84.778 71.333,82.888 71.333 L 81.000 71.333 81.000 84.167 M119.667 84.151 L 119.667 96.969 122.250 96.991 L 124.833 97.013 124.833 84.173 L 124.833 71.333 122.250 71.333 L 119.667 71.333 119.667 84.151 M139.167 71.470 C 139.167 71.787,139.744 73.268,139.946 73.470 C 140.068 73.591,140.172 73.741,140.179 73.804 C 140.212 74.091,140.341 74.496,140.721 75.500 C 141.413 77.330,141.474 77.464,141.656 77.577 C 141.754 77.637,141.833 77.832,141.833 78.010 C 141.833 78.188,141.913 78.333,142.010 78.333 C 142.107 78.333,142.146 78.399,142.096 78.480 C 141.999 78.636,142.821 81.026,143.020 81.168 C 143.085 81.214,143.363 81.900,143.637 82.692 C 143.911 83.483,144.234 84.308,144.354 84.524 C 144.473 84.740,144.577 84.954,144.583 85.000 C 144.590 85.046,144.676 85.233,144.775 85.417 C 144.874 85.600,145.163 86.369,145.418 87.125 C 145.672 87.881,145.942 88.500,146.018 88.500 C 146.094 88.500,146.113 88.612,146.060 88.750 C 146.008 88.888,146.042 89.000,146.138 89.000 C 146.233 89.000,146.361 89.169,146.422 89.375 C 146.873 90.891,147.399 92.145,147.546 92.055 C 147.647 91.993,147.668 92.030,147.596 92.145 C 147.529 92.254,147.647 92.697,147.857 93.130 C 148.068 93.562,148.256 93.992,148.275 94.083 C 148.365 94.515,149.046 96.259,149.153 96.333 C 149.220 96.379,149.324 96.551,149.385 96.715 C 149.484 96.985,149.724 97.012,151.811 96.991 L 154.127 96.967 154.383 96.192 C 154.907 94.607,155.256 93.744,155.458 93.530 C 155.573 93.409,155.676 93.202,155.688 93.071 C 155.716 92.745,155.742 92.667,156.042 92.002 C 156.186 91.682,156.268 91.363,156.225 91.293 C 156.182 91.224,156.226 91.167,156.323 91.167 C 156.421 91.167,156.500 91.016,156.500 90.831 C 156.500 90.519,156.792 89.857,157.014 89.667 C 157.067 89.621,157.247 89.171,157.414 88.667 C 157.581 88.162,157.856 87.432,158.025 87.043 C 158.195 86.655,158.333 86.224,158.333 86.085 C 158.333 85.947,158.399 85.833,158.478 85.833 C 158.558 85.833,158.823 85.252,159.067 84.542 C 159.311 83.831,159.725 82.800,159.988 82.250 C 160.436 81.310,160.991 79.835,161.067 79.380 C 161.086 79.268,161.154 79.124,161.217 79.060 C 161.281 78.997,161.333 78.813,161.333 78.653 C 161.333 78.492,161.408 78.336,161.500 78.306 C 161.656 78.253,162.340 76.570,162.690 75.375 C 162.778 75.077,162.920 74.833,163.008 74.833 C 163.095 74.833,163.168 74.740,163.171 74.625 C 163.173 74.510,163.360 73.967,163.587 73.417 C 163.813 72.867,164.046 72.169,164.103 71.867 L 164.207 71.317 161.812 71.340 C 159.246 71.365,158.667 71.555,158.667 72.372 C 158.667 72.545,158.593 72.641,158.502 72.585 C 158.407 72.526,158.379 72.593,158.436 72.741 C 158.491 72.884,158.458 73.000,158.364 73.000 C 158.213 73.000,157.854 73.837,157.771 74.385 C 157.754 74.494,157.696 74.658,157.642 74.750 C 157.588 74.842,157.451 75.217,157.337 75.583 C 157.223 75.950,157.037 76.400,156.924 76.583 C 156.722 76.910,155.997 78.887,155.932 79.287 C 155.913 79.399,155.846 79.543,155.783 79.606 C 155.719 79.670,155.667 79.854,155.667 80.016 C 155.667 80.177,155.561 80.415,155.431 80.545 C 155.302 80.674,154.964 81.474,154.680 82.321 C 154.396 83.168,153.988 84.249,153.773 84.722 C 153.558 85.196,153.173 86.221,152.916 87.000 C 152.660 87.779,152.368 88.472,152.267 88.539 C 152.166 88.606,152.149 88.663,152.229 88.664 C 152.309 88.666,152.298 88.760,152.206 88.875 C 152.113 88.990,151.981 89.421,151.911 89.833 C 151.799 90.495,151.770 90.534,151.664 90.167 C 151.104 88.225,150.943 87.739,150.837 87.667 C 150.769 87.621,150.430 86.758,150.083 85.750 C 149.735 84.742,149.276 83.597,149.061 83.207 C 148.847 82.817,148.686 82.479,148.703 82.457 C 148.771 82.369,147.763 79.515,147.689 79.588 C 147.646 79.632,147.315 78.768,146.954 77.668 C 146.592 76.569,146.230 75.711,146.148 75.761 C 146.067 75.812,146.000 75.735,146.000 75.590 C 146.000 74.773,144.793 71.881,144.339 71.613 C 143.830 71.312,139.167 71.183,139.167 71.470 M178.335 84.168 L 178.341 97.003 186.462 96.960 L 194.583 96.917 194.630 94.875 L 194.677 92.833 189.088 92.833 L 183.500 92.833 183.500 89.417 L 183.500 86.000 187.833 86.000 L 192.167 86.000 192.167 84.000 L 192.167 82.000 187.833 82.000 L 183.500 82.000 183.500 78.667 L 183.500 75.333 189.083 75.333 L 194.667 75.333 194.667 73.333 L 194.667 71.333 186.498 71.333 L 178.329 71.333 178.335 84.168 M210.000 84.153 L 210.000 97.000 212.583 97.000 L 215.167 97.000 215.167 91.989 L 215.167 86.977 216.292 87.013 C 217.683 87.056,218.211 87.311,218.776 88.213 C 219.018 88.600,219.266 88.954,219.326 89.000 C 219.386 89.046,219.532 89.322,219.650 89.613 C 219.767 89.904,219.953 90.177,220.063 90.219 C 220.172 90.261,220.438 90.638,220.653 91.057 C 220.869 91.476,221.177 91.960,221.338 92.133 C 221.499 92.306,221.754 92.685,221.903 92.974 C 222.053 93.263,222.248 93.500,222.338 93.500 C 222.427 93.500,222.491 93.556,222.480 93.625 C 222.429 93.953,222.528 94.195,222.845 94.512 C 223.035 94.702,223.396 95.208,223.647 95.637 C 224.312 96.773,224.684 96.903,227.464 96.972 C 230.489 97.048,230.473 97.054,229.898 96.044 C 229.650 95.607,229.353 95.172,229.238 95.076 C 229.123 94.980,228.757 94.436,228.423 93.867 C 228.090 93.299,227.746 92.833,227.659 92.833 C 227.571 92.833,227.500 92.727,227.500 92.596 C 227.500 92.466,227.256 92.113,226.958 91.813 C 226.660 91.513,226.518 91.329,226.642 91.404 C 226.886 91.552,226.432 90.784,226.000 90.319 C 225.511 89.793,225.171 89.333,225.271 89.333 C 225.423 89.333,224.813 88.436,224.557 88.283 C 224.434 88.210,224.333 88.049,224.333 87.926 C 224.333 87.803,223.996 87.327,223.583 86.869 C 222.765 85.958,222.705 85.833,223.090 85.833 C 224.288 85.833,227.319 82.953,227.330 81.804 C 227.332 81.650,227.465 81.393,227.625 81.232 C 227.984 80.873,228.069 76.582,227.722 76.367 C 227.614 76.301,227.474 76.022,227.410 75.748 C 227.204 74.870,226.374 73.769,225.464 73.167 C 224.980 72.846,224.544 72.532,224.497 72.469 C 224.377 72.310,223.589 72.011,222.500 71.709 C 221.789 71.513,220.282 71.439,215.792 71.381 L 210.000 71.307 210.000 84.153 M275.833 84.151 L 275.833 96.969 278.333 96.991 L 280.833 97.014 280.833 84.173 L 280.833 71.333 278.333 71.333 L 275.833 71.333 275.833 84.151 M295.500 73.333 L 295.500 75.333 299.333 75.333 L 303.167 75.333 303.167 86.167 L 303.167 97.000 305.667 97.000 L 308.167 97.000 308.167 86.167 L 308.167 75.333 312.000 75.333 L 315.833 75.333 315.833 73.333 L 315.833 71.333 305.667 71.333 L 295.500 71.333 295.500 73.333 M328.667 71.510 C 328.667 71.607,328.753 71.633,328.859 71.567 C 328.986 71.489,329.006 71.522,328.917 71.666 C 328.837 71.796,328.876 71.958,329.016 72.067 C 329.145 72.168,329.511 72.771,329.830 73.408 C 330.149 74.044,330.561 74.757,330.747 74.991 C 330.932 75.225,331.308 75.848,331.583 76.374 C 331.858 76.901,332.144 77.332,332.218 77.333 C 332.292 77.333,332.307 77.408,332.250 77.500 C 332.193 77.592,332.215 77.667,332.298 77.667 C 332.381 77.667,332.692 78.135,332.988 78.708 C 333.284 79.281,333.614 79.825,333.722 79.917 C 333.829 80.008,334.178 80.583,334.497 81.194 C 334.816 81.806,335.134 82.270,335.203 82.227 C 335.273 82.185,335.285 82.266,335.230 82.408 C 335.176 82.550,335.200 82.667,335.284 82.667 C 335.368 82.667,335.730 83.229,336.089 83.917 C 336.447 84.604,336.787 85.167,336.843 85.167 C 336.900 85.167,337.090 85.466,337.265 85.831 C 337.440 86.197,337.644 86.497,337.718 86.498 C 337.792 86.499,337.810 86.570,337.757 86.655 C 337.704 86.740,337.737 86.857,337.831 86.915 C 337.939 86.982,338.000 88.809,338.000 92.010 L 338.000 97.000 340.583 97.000 L 343.167 97.000 343.167 92.075 L 343.167 87.150 343.875 85.783 C 344.264 85.032,344.638 84.392,344.706 84.362 C 344.774 84.332,345.102 83.788,345.435 83.154 C 345.769 82.519,346.107 82.000,346.187 82.000 C 346.268 82.000,346.333 81.924,346.333 81.830 C 346.333 81.737,346.521 81.363,346.750 81.000 C 346.979 80.637,347.167 80.249,347.167 80.137 C 347.167 80.026,347.343 79.743,347.559 79.509 C 347.775 79.275,348.207 78.597,348.518 78.003 C 348.829 77.409,349.180 76.820,349.298 76.693 C 349.416 76.567,349.698 76.098,349.924 75.652 C 350.150 75.206,350.679 74.309,351.100 73.659 C 351.521 73.008,351.824 72.435,351.774 72.385 C 351.724 72.335,351.791 72.185,351.925 72.052 C 352.572 71.404,352.291 71.319,349.583 71.342 L 346.999 71.364 346.507 71.961 C 346.237 72.289,346.054 72.619,346.101 72.695 C 346.148 72.771,346.107 72.833,346.010 72.833 C 345.913 72.833,345.590 73.317,345.292 73.909 C 344.165 76.146,343.120 78.086,343.000 78.167 C 342.931 78.212,342.592 78.850,342.246 79.583 C 341.900 80.317,341.562 80.954,341.494 81.000 C 341.427 81.046,341.190 81.514,340.969 82.040 L 340.566 82.997 340.356 82.415 C 340.240 82.095,340.075 81.833,339.989 81.833 C 339.903 81.833,339.833 81.759,339.833 81.667 C 339.833 81.379,338.620 79.000,338.473 79.000 C 338.396 79.000,338.333 78.893,338.333 78.762 C 338.333 78.631,338.218 78.409,338.077 78.268 C 337.937 78.127,337.821 77.973,337.820 77.926 C 337.814 77.670,337.101 76.167,336.986 76.167 C 336.911 76.167,336.550 75.528,336.185 74.748 C 335.819 73.968,335.403 73.212,335.260 73.069 C 335.117 72.926,335.000 72.710,335.000 72.589 C 335.000 72.468,334.782 72.136,334.516 71.851 L 334.033 71.333 331.350 71.333 C 329.572 71.333,328.667 71.393,328.667 71.510 M220.875 75.878 C 221.585 76.208,222.167 76.563,222.167 76.666 C 222.167 76.769,222.260 76.799,222.375 76.733 C 222.490 76.667,222.530 76.672,222.465 76.744 C 222.400 76.817,222.460 77.147,222.600 77.480 C 223.555 79.758,221.910 83.000,219.799 83.000 C 219.635 83.000,219.500 83.059,219.500 83.131 C 219.500 83.203,219.294 83.252,219.042 83.240 C 218.790 83.228,217.815 83.207,216.875 83.193 L 215.167 83.167 215.167 79.145 L 215.167 75.123 217.375 75.201 C 219.483 75.275,219.642 75.306,220.875 75.878 " stroke="none" fill="#144434" fill-rule="evenodd"></path><path id="path1" d="M299.875 54.750 C 299.877 55.117,299.911 55.247,299.951 55.040 C 299.991 54.832,299.990 54.532,299.948 54.373 C 299.906 54.214,299.874 54.383,299.875 54.750 " stroke="none" fill="#144c34" fill-rule="evenodd"></path><path id="path2" d="" stroke="none" fill="#184434" fill-rule="evenodd"></path><path id="path3" d="" stroke="none" fill="#184434" fill-rule="evenodd"></path><path id="path4" d="" stroke="none" fill="#184434" fill-rule="evenodd"></path><path id="path5" d="" stroke="none" fill="#184434" fill-rule="evenodd"></path><path id="path6" d="" stroke="none" fill="#184434" fill-rule="evenodd"></path><path id="path7" d="" stroke="none" fill="#184434" fill-rule="evenodd"></path><path id="path8" d="" stroke="none" fill="#184434" fill-rule="evenodd"></path></g></svg>